<svg xmlns="http://www.w3.org/2000/svg" width="634" height="638" viewBox="0 0 634 638" version="1.1">
	<path d="M 284 80.543 C 280.975 81.298, 276.957 81.934, 275.071 81.958 C 273.185 81.981, 270.260 82.421, 268.571 82.936 C 265.789 83.785, 259.638 85.243, 253 86.629 C 251.625 86.916, 249.600 87.504, 248.500 87.935 C 247.400 88.367, 243.800 89.537, 240.500 90.537 C 237.200 91.536, 234.073 92.724, 233.550 93.177 C 233.028 93.630, 231.747 94, 230.704 94 C 229.662 94, 227.614 94.622, 226.154 95.383 C 219.655 98.768, 212.369 102, 211.236 102 C 210.556 102, 210 102.450, 210 103 C 210 103.550, 209.316 104, 208.480 104 C 207.129 104, 203.450 105.922, 197.462 109.756 C 196.383 110.447, 194.825 111.320, 194 111.696 C 189.050 113.949, 166.626 129.636, 160.179 135.356 C 155.591 139.427, 135.427 159.591, 131.356 164.179 C 125.687 170.569, 110.089 192.846, 107.676 198 C 107.290 198.825, 105.626 201.750, 103.979 204.500 C 101.118 209.277, 97.567 216.450, 94.324 224 C 93.497 225.925, 92.186 228.694, 91.410 230.154 C 90.635 231.614, 90 233.662, 90 234.704 C 90 235.747, 89.630 237.027, 89.177 237.550 C 88.724 238.072, 87.536 241.200, 86.537 244.500 C 85.537 247.800, 84.367 251.400, 83.935 252.500 C 83.504 253.600, 82.916 255.625, 82.629 257 C 81.243 263.638, 79.785 269.789, 78.936 272.571 C 78.421 274.260, 77.984 277.185, 77.964 279.071 C 77.945 280.957, 77.277 285.200, 76.480 288.500 C 74.417 297.046, 74.443 341.707, 76.517 351.500 C 77.333 355.349, 78 359.817, 78 361.429 C 78 363.040, 78.421 365.740, 78.936 367.429 C 79.785 370.211, 81.243 376.362, 82.629 383 C 82.916 384.375, 83.504 386.400, 83.935 387.500 C 84.367 388.600, 85.537 392.200, 86.537 395.500 C 87.536 398.800, 88.724 401.927, 89.177 402.450 C 89.630 402.972, 90 404.253, 90 405.296 C 90 406.338, 90.634 408.386, 91.409 409.846 C 93.835 414.416, 98 424.010, 98 425.027 C 98 425.562, 98.450 426, 99 426 C 99.550 426, 100 426.684, 100 427.520 C 100 428.871, 101.922 432.550, 105.756 438.538 C 106.447 439.617, 107.320 441.175, 107.696 442 C 109.949 446.950, 125.636 469.374, 131.356 475.821 C 135.427 480.409, 155.591 500.573, 160.179 504.644 C 166.569 510.313, 188.846 525.911, 194 528.324 C 194.825 528.710, 197.750 530.374, 200.500 532.021 C 207.686 536.324, 217.365 540.817, 229 545.248 C 239.418 549.217, 242.328 550.198, 245.262 550.730 C 246.781 551.005, 248.271 551.629, 248.571 552.115 C 248.872 552.602, 250.576 553, 252.359 553 C 254.142 553, 256.028 553.427, 256.550 553.948 C 257.528 554.924, 264.612 556.412, 276 558.033 C 279.575 558.542, 284.300 559.407, 286.500 559.955 C 293.012 561.578, 340.376 561.240, 347.500 559.520 C 350.800 558.723, 355.419 558.055, 357.764 558.036 C 360.109 558.016, 362.809 557.598, 363.764 557.106 C 365.419 556.254, 372.748 554.525, 379.759 553.333 C 381.552 553.028, 383.266 552.379, 383.568 551.890 C 383.871 551.400, 385.104 550.997, 386.309 550.994 C 387.514 550.990, 389.789 550.315, 391.364 549.494 C 392.940 548.672, 394.858 548, 395.628 548 C 396.397 548, 397.809 547.596, 398.764 547.103 C 399.719 546.609, 402.525 545.430, 405 544.483 C 415.533 540.452, 421.383 537.764, 421.833 536.750 C 422.017 536.337, 422.813 536, 423.603 536 C 424.881 536, 428.630 534.027, 434.538 530.244 C 435.617 529.553, 437.175 528.680, 438 528.304 C 442.950 526.051, 465.374 510.364, 471.821 504.644 C 476.409 500.573, 496.573 480.409, 500.644 475.821 C 506.364 469.374, 522.051 446.950, 524.304 442 C 524.680 441.175, 525.553 439.617, 526.244 438.538 C 530.027 432.630, 532 428.881, 532 427.603 C 532 426.813, 532.337 426.017, 532.750 425.833 C 533.764 425.383, 536.452 419.533, 540.483 409 C 541.430 406.525, 542.609 403.719, 543.103 402.764 C 543.596 401.809, 544 400.397, 544 399.628 C 544 398.858, 544.672 396.940, 545.494 395.364 C 546.315 393.789, 546.990 391.514, 546.994 390.309 C 546.997 389.104, 547.450 387.840, 548 387.500 C 548.550 387.160, 549 385.754, 549 384.375 C 549 382.997, 549.435 381.056, 549.966 380.064 C 550.995 378.140, 552.524 370.599, 554.033 360 C 554.542 356.425, 555.407 351.700, 555.955 349.500 C 557.578 342.988, 557.240 295.624, 555.520 288.500 C 554.723 285.200, 554.055 280.957, 554.036 279.071 C 554.016 277.185, 553.579 274.260, 553.064 272.571 C 552.215 269.789, 550.757 263.638, 549.371 257 C 549.084 255.625, 548.501 253.600, 548.075 252.500 C 547.649 251.400, 546.062 246.675, 544.549 242 C 543.036 237.325, 541.168 232.037, 540.399 230.250 C 534.483 216.507, 531.522 210.346, 528.021 204.500 C 526.374 201.750, 524.710 198.825, 524.324 198 C 521.911 192.846, 506.313 170.569, 500.644 164.179 C 496.573 159.591, 476.409 139.427, 471.821 135.356 C 467.258 131.308, 452.097 120.353, 444.942 115.933 C 441.884 114.045, 438.509 111.935, 437.442 111.244 C 436.374 110.553, 434.825 109.686, 434 109.317 C 433.175 108.948, 430.821 107.601, 428.770 106.323 C 426.718 105.045, 424.356 104, 423.520 104 C 422.684 104, 422 103.550, 422 103 C 422 102.450, 421.562 102, 421.027 102 C 420.010 102, 410.416 97.835, 405.846 95.409 C 404.386 94.634, 402.338 94, 401.296 94 C 400.253 94, 398.973 93.630, 398.450 93.177 C 397.928 92.724, 394.800 91.536, 391.500 90.537 C 388.200 89.537, 384.600 88.367, 383.500 87.935 C 382.400 87.504, 380.375 86.916, 379 86.629 C 372.362 85.243, 366.211 83.785, 363.429 82.936 C 361.740 82.421, 359.040 82, 357.429 82 C 355.817 82, 351.349 81.333, 347.500 80.517 C 338.021 78.510, 292.073 78.528, 284 80.543 M 299.500 102.188 C 293.450 102.662, 285.350 103.720, 281.500 104.538 C 277.650 105.356, 273.064 106.020, 271.309 106.013 C 269.554 106.006, 267.840 106.450, 267.500 107 C 267.160 107.550, 265.731 108, 264.325 108 C 261.810 108, 253.164 110.459, 249.764 112.141 C 248.809 112.613, 247.361 113, 246.547 113 C 245.187 113, 239.979 114.991, 235.764 117.122 C 234.809 117.605, 233.548 118, 232.963 118 C 231.902 118, 211.281 127.951, 207.522 130.276 C 206.434 130.949, 202.210 133.637, 198.134 136.250 C 194.058 138.863, 190.373 141, 189.945 141 C 189.517 141, 189.017 141.377, 188.833 141.837 C 188.650 142.298, 186.499 144.113, 184.054 145.871 C 171.409 154.960, 150.960 175.409, 141.871 188.054 C 140.113 190.499, 138.298 192.650, 137.837 192.833 C 137.377 193.017, 137 193.517, 137 193.945 C 137 194.373, 134.863 198.058, 132.250 202.134 C 125.475 212.703, 125.252 213.074, 123 217.500 C 121.881 219.700, 120.561 222.175, 120.067 223 C 118.481 225.650, 114 236.021, 114 237.041 C 114 237.583, 113.605 238.809, 113.122 239.764 C 110.991 243.979, 109 249.187, 109 250.547 C 109 251.361, 108.613 252.809, 108.141 253.764 C 106.459 257.164, 104 265.810, 104 268.325 C 104 269.731, 103.550 271.160, 103 271.500 C 102.450 271.840, 102.006 273.554, 102.013 275.309 C 102.020 277.064, 101.368 281.650, 100.564 285.500 C 96.601 304.484, 96.598 333.395, 100.556 354.023 C 101.350 358.160, 102 362.971, 102 364.714 C 102 366.456, 102.450 368.160, 103 368.500 C 103.550 368.840, 104 370.269, 104 371.675 C 104 374.190, 106.459 382.836, 108.141 386.236 C 108.613 387.191, 109 388.639, 109 389.453 C 109 390.813, 110.991 396.021, 113.122 400.236 C 113.605 401.191, 114 402.417, 114 402.959 C 114 403.979, 118.481 414.350, 120.067 417 C 120.561 417.825, 121.881 420.300, 123 422.500 C 125.252 426.926, 125.475 427.297, 132.250 437.866 C 134.862 441.942, 137 445.627, 137 446.055 C 137 446.483, 137.377 446.983, 137.837 447.167 C 138.298 447.350, 139.986 449.300, 141.588 451.500 C 151.583 465.226, 171.100 484.818, 184.054 494.129 C 186.499 495.887, 188.650 497.702, 188.833 498.163 C 189.017 498.623, 189.517 499, 189.945 499 C 190.373 499, 194.058 501.138, 198.134 503.750 C 202.210 506.363, 206.434 509.043, 207.522 509.707 C 211.400 512.074, 231.961 522, 232.984 522 C 233.558 522, 234.809 522.395, 235.764 522.878 C 239.979 525.009, 245.187 527, 246.547 527 C 247.361 527, 248.809 527.387, 249.764 527.859 C 253.164 529.541, 261.810 532, 264.325 532 C 265.731 532, 267.160 532.450, 267.500 533 C 267.840 533.550, 269.611 534, 271.436 534 C 273.261 534, 277.847 534.635, 281.627 535.412 C 300.666 539.322, 331.799 539.332, 350.500 535.434 C 354.350 534.631, 358.936 533.980, 360.691 533.987 C 362.446 533.994, 364.160 533.550, 364.500 533 C 364.840 532.450, 366.615 532, 368.445 532 C 370.274 532, 373.060 531.328, 374.636 530.506 C 376.211 529.685, 378.486 529.010, 379.691 529.006 C 380.896 529.003, 382.160 528.550, 382.500 528 C 382.840 527.450, 383.976 527, 385.025 527 C 386.748 527, 391.644 525.200, 396.236 522.878 C 397.191 522.395, 398.452 522, 399.037 522 C 400.098 522, 420.719 512.049, 424.478 509.724 C 425.566 509.051, 429.790 506.363, 433.866 503.750 C 437.942 501.138, 441.627 499, 442.055 499 C 442.483 499, 442.983 498.623, 443.167 498.163 C 443.350 497.702, 445.501 495.887, 447.946 494.129 C 460.591 485.040, 481.040 464.591, 490.129 451.946 C 491.887 449.501, 493.702 447.350, 494.163 447.167 C 494.623 446.983, 495 446.483, 495 446.055 C 495 445.627, 497.137 441.942, 499.750 437.866 C 506.667 427.074, 506.779 426.886, 508.980 422.311 C 510.088 420.006, 511.446 417.842, 511.997 417.502 C 512.549 417.161, 513 415.784, 513 414.441 C 513 413.098, 513.337 411.998, 513.750 411.996 C 514.163 411.994, 515.328 409.857, 516.339 407.246 C 517.351 404.636, 518.526 401.600, 518.951 400.500 C 519.375 399.400, 520.460 396.797, 521.361 394.716 C 522.263 392.635, 523 390.266, 523 389.453 C 523 388.639, 523.387 387.191, 523.859 386.236 C 525.541 382.836, 528 374.190, 528 371.675 C 528 370.269, 528.450 368.840, 529 368.500 C 529.550 368.160, 530 366.389, 530 364.564 C 530 362.739, 530.635 358.153, 531.412 354.373 C 535.290 335.489, 535.303 306.868, 531.444 285.500 C 530.649 281.100, 529.999 276.289, 529.999 274.809 C 530 273.329, 529.550 271.840, 529 271.500 C 528.450 271.160, 528 269.731, 528 268.325 C 528 265.810, 525.541 257.164, 523.859 253.764 C 523.387 252.809, 523 251.361, 523 250.547 C 523 249.187, 521.009 243.979, 518.878 239.764 C 518.395 238.809, 518 237.583, 518 237.041 C 518 236.021, 513.519 225.650, 511.933 223 C 511.439 222.175, 510.119 219.700, 509 217.500 C 506.748 213.074, 506.525 212.703, 499.750 202.134 C 497.137 198.058, 495 194.373, 495 193.945 C 495 193.517, 494.623 193.017, 494.163 192.833 C 493.702 192.650, 491.887 190.499, 490.129 188.054 C 483.926 179.424, 470.211 164.659, 460.818 156.500 C 453.131 149.823, 451.657 148.615, 447.500 145.588 C 445.300 143.986, 443.350 142.298, 443.167 141.837 C 442.983 141.377, 442.483 141, 442.055 141 C 441.627 141, 437.942 138.863, 433.866 136.250 C 423.297 129.475, 422.926 129.252, 418.500 127 C 416.300 125.881, 413.825 124.561, 413 124.067 C 410.350 122.481, 399.979 118, 398.959 118 C 398.417 118, 397.191 117.605, 396.236 117.122 C 391.644 114.800, 386.748 113, 385.025 113 C 383.976 113, 382.840 112.550, 382.500 112 C 382.160 111.450, 380.964 111, 379.842 111 C 378.720 111, 376.384 110.363, 374.651 109.584 C 371.541 108.187, 369.315 107.677, 359.500 106.114 C 356.750 105.676, 351.800 104.814, 348.500 104.199 C 341.455 102.886, 319.043 100.908, 314 101.154 C 312.075 101.249, 305.550 101.714, 299.500 102.188 M 212.772 276.772 L 165 324.544 165 330 L 165 335.456 212.772 383.228 L 260.544 431 265.576 431 C 269.955 431, 271.022 430.572, 273.804 427.702 C 276.516 424.905, 277 423.662, 277 419.502 L 277 414.600 234.777 372.300 L 192.554 330 234.777 287.700 L 277 245.400 277 240.396 C 277 236.049, 276.567 234.973, 273.702 232.196 C 270.899 229.479, 269.665 229, 265.474 229 L 260.544 229 212.772 276.772 M 292.829 276.788 L 245 324.576 245 330.016 L 245 335.456 292.772 383.228 L 340.544 431 345.695 431 C 350.114 431, 351.284 430.563, 353.923 427.923 C 356.558 425.288, 357 424.111, 357 419.723 L 357 414.600 314.771 372.295 L 272.543 329.989 314.771 287.717 L 357 245.445 357 240.419 C 357 236.046, 356.571 234.977, 353.702 232.196 C 350.910 229.490, 349.658 229, 345.531 229 L 340.657 229 292.829 276.788 M 372.772 276.772 L 325 324.544 325 329.990 L 325 335.437 372.752 383.218 L 420.504 431 425.556 431 C 429.957 431, 431.019 430.576, 433.804 427.702 C 436.520 424.900, 437 423.665, 437 419.480 L 437 414.555 394.771 372.283 L 352.543 330.011 394.771 287.705 L 437 245.400 437 240.396 C 437 236.049, 436.567 234.973, 433.702 232.196 C 430.899 229.479, 429.665 229, 425.474 229 L 420.544 229 372.772 276.772" stroke="none" fill="#000000" fill-rule="evenodd"/>
</svg>