<svg id="svg" version="1.1" xmlns="http://www.w3.org/2000/svg" xmlns:xlink="http://www.w3.org/1999/xlink" width="400" height="400" viewBox="0, 0, 400,400"><g id="svgg"><path id="path0" d="M175.540 39.375 C 73.031 58.752,24.359 174.095,82.084 260.850 C 89.172 271.503,92.410 274.667,96.224 274.667 C 98.377 274.667,293.087 80.200,294.089 77.050 C 296.699 68.840,264.296 49.074,236.274 41.782 C 219.734 37.478,191.496 36.359,175.540 39.375 M51.197 59.638 C -0.976 119.460,-9.418 205.174,30.253 272.308 C 38.528 286.313,38.144 285.118,34.130 284.351 C 28.204 283.218,23.446 290.338,27.000 295.019 C 29.643 298.500,54.085 302.021,57.964 299.480 C 62.008 296.830,64.903 275.716,61.869 271.000 C 59.013 266.562,53.858 267.073,50.803 272.097 L 48.311 276.194 43.475 268.233 C 4.320 203.777,12.841 120.391,64.167 65.746 C 72.931 56.416,72.784 49.333,63.825 49.333 C 60.948 49.333,58.297 51.497,51.197 59.638 M193.333 82.870 L 193.333 115.072 175.357 114.170 C 156.523 113.225,153.333 112.658,153.333 110.252 C 153.333 101.800,186.581 50.667,192.077 50.667 C 192.829 50.667,193.333 63.603,193.333 82.870 M215.715 56.660 C 223.855 65.907,234.298 81.593,240.805 94.344 L 246.706 105.909 242.824 109.791 C 239.089 113.527,238.362 113.699,223.567 114.352 L 208.192 115.030 207.762 101.848 C 207.122 82.165,208.096 50.667,209.345 50.667 C 209.947 50.667,212.814 53.364,215.715 56.660 M162.127 65.000 C 153.678 77.366,147.033 89.462,141.997 101.644 C 138.848 109.261,137.860 110.535,135.476 110.047 C 110.691 104.980,98.667 102.029,98.667 101.014 C 98.667 91.214,152.833 55.163,168.260 54.695 C 168.770 54.679,166.010 59.317,162.127 65.000 M248.228 59.988 C 258.565 64.247,274.149 72.751,275.438 74.836 C 275.927 75.627,271.938 80.693,266.573 86.094 L 256.819 95.914 250.437 83.832 C 246.927 77.187,241.296 67.883,237.924 63.157 L 231.792 54.564 235.563 55.444 C 237.636 55.928,243.336 57.973,248.228 59.988 M337.600 58.933 C 336.578 59.956,336.000 65.156,336.000 73.333 C 336.000 87.311,336.880 89.333,342.962 89.333 C 345.686 89.333,347.145 88.409,348.251 85.982 L 349.778 82.630 353.631 88.315 C 395.515 150.119,388.547 237.711,337.283 293.801 C 332.038 299.540,330.578 302.063,330.907 304.821 C 332.474 317.972,346.143 308.231,364.429 280.931 C 404.225 221.518,404.403 141.723,364.874 80.704 L 358.852 71.408 362.955 70.037 C 368.046 68.337,369.875 64.034,367.158 60.154 C 364.829 56.830,340.700 55.833,337.600 58.933 M204.988 185.021 C 148.011 242.017,106.667 284.380,106.667 285.763 C 106.667 299.470,159.635 321.815,196.333 323.590 L 213.333 324.412 213.333 341.444 C 213.333 372.984,214.566 372.589,255.269 328.000 C 269.661 312.233,283.964 297.346,287.052 294.918 C 338.203 254.695,356.829 189.547,334.314 129.605 C 326.711 109.365,311.642 86.667,305.808 86.667 C 304.276 86.667,265.263 124.725,204.988 185.021 M315.870 121.333 C 344.306 176.121,330.748 240.457,282.171 281.236 C 276.210 286.240,261.733 300.863,250.000 313.731 C 238.267 326.598,228.217 337.173,227.667 337.230 C 227.117 337.287,226.667 331.707,226.667 324.830 C 226.667 309.001,227.707 309.659,202.667 309.658 C 173.597 309.657,153.225 304.061,131.351 290.069 L 123.578 285.096 214.122 194.514 L 304.667 103.931 307.673 107.632 C 309.327 109.668,313.015 115.833,315.870 121.333 M123.667 121.373 C 128.983 122.320,133.325 123.748,133.316 124.547 C 133.306 125.346,132.127 131.675,130.696 138.612 C 129.265 145.549,127.690 156.199,127.197 162.279 L 126.300 173.333 98.458 173.333 L 70.616 173.333 71.227 170.333 C 71.564 168.683,72.204 164.124,72.650 160.201 C 73.732 150.679,79.289 133.373,84.756 122.502 L 89.197 113.671 101.598 116.662 C 108.419 118.307,118.350 120.427,123.667 121.373 M165.333 127.260 C 168.633 127.641,176.283 128.048,182.333 128.164 L 193.333 128.375 193.333 143.812 L 193.333 159.249 186.379 166.291 L 179.424 173.333 159.521 173.333 L 139.617 173.333 140.513 163.688 C 141.414 153.994,146.206 128.491,147.528 126.352 C 147.918 125.721,150.733 125.512,153.785 125.886 C 156.837 126.260,162.033 126.879,165.333 127.260 M224.000 128.375 C 224.000 128.581,220.400 132.313,216.000 136.667 L 208.000 144.583 208.000 136.292 L 208.000 128.000 216.000 128.000 C 220.400 128.000,224.000 128.169,224.000 128.375 M127.524 201.838 C 128.407 209.815,129.457 217.643,129.856 219.233 C 130.445 221.579,127.314 225.377,113.239 239.395 L 95.898 256.667 93.311 253.333 C 85.443 243.196,76.088 220.260,73.459 204.667 C 70.042 184.400,66.823 186.612,99.174 187.007 L 125.917 187.333 127.524 201.838 M154.375 198.273 C 140.913 211.735,141.839 211.776,140.612 197.667 L 139.656 186.667 152.818 186.667 L 165.981 186.667 154.375 198.273 M195.143 233.322 C 187.059 236.584,185.270 249.466,192.102 255.215 C 197.842 260.044,204.327 259.878,209.436 254.769 C 219.805 244.400,208.760 227.827,195.143 233.322 M233.034 234.013 C 225.414 238.286,224.209 248.414,230.564 254.769 C 235.878 260.083,242.362 260.092,248.293 254.793 C 259.670 244.628,246.379 226.528,233.034 234.013 M272.476 233.322 C 264.392 236.584,262.603 249.466,269.436 255.215 C 275.175 260.044,281.661 259.878,286.769 254.769 C 297.138 244.400,286.093 227.827,272.476 233.322 " stroke="none" fill="#eeeee1" fill-rule="evenodd"/></g></svg>