<svg id="svg" xmlns="http://www.w3.org/2000/svg" xmlns:xlink="http://www.w3.org/1999/xlink" width="400" height="400" viewBox="0, 0, 400,400"><g id="svgg"><path id="path0" d="M0.012 73.633 C 0.067 93.196,14.793 112.063,35.938 119.660 L 41.016 121.484 105.859 121.875 L 170.703 122.266 179.178 125.247 C 183.839 126.886,193.507 130.875,200.663 134.111 C 207.818 137.347,218.145 141.982,223.611 144.411 C 230.365 147.412,233.432 149.162,233.181 149.869 C 232.979 150.441,232.811 161.867,232.810 175.259 L 232.807 199.609 212.024 228.906 C 200.594 245.020,190.228 260.207,188.988 262.657 C 178.036 284.305,184.193 313.039,202.872 327.450 C 205.316 329.335,207.377 330.413,207.755 330.004 C 208.115 329.615,217.819 316.641,229.319 301.172 C 260.586 259.113,268.484 252.711,298.227 245.312 C 324.638 238.743,335.535 231.702,354.497 208.956 L 365.219 196.094 382.609 196.094 L 400.000 196.094 400.000 132.813 L 400.000 69.531 200.000 69.531 L 0.000 69.531 0.012 73.633 M142.024 154.899 C 132.009 170.112,131.655 171.066,131.647 182.813 C 131.634 202.247,136.982 208.782,164.410 222.846 C 174.250 227.893,182.375 231.936,182.464 231.831 C 182.554 231.726,188.820 222.900,196.389 212.217 L 210.152 192.794 209.701 186.436 C 209.453 182.939,209.014 176.098,208.727 171.233 L 208.203 162.388 197.266 157.326 C 172.475 145.854,168.299 144.526,157.085 144.547 L 148.828 144.563 142.024 154.899 " stroke="none" fill="#202020" fill-rule="evenodd"></path></g></svg>