<?xml version="1.0" standalone="no"?>
<!DOCTYPE svg PUBLIC "-//W3C//DTD SVG 20010904//EN"
 "http://www.w3.org/TR/2001/REC-SVG-20010904/DTD/svg10.dtd">
<svg version="1.0" xmlns="http://www.w3.org/2000/svg"
 width="2319.000000pt" height="2320.000000pt" viewBox="0 0 2319.000000 2320.000000"
 preserveAspectRatio="xMidYMid meet">

<g transform="translate(0.000000,2320.000000) scale(0.100000,-0.100000)"
fill="#000000" stroke="none">
<path d="M11205 22014 c-33 -2 -145 -8 -250 -14 -2364 -137 -4625 -1097 -6394
-2715 -198 -182 -568 -556 -738 -746 -1385 -1557 -2270 -3474 -2548 -5522 -67
-500 -90 -853 -90 -1417 1 -452 8 -620 41 -980 200 -2170 1090 -4232 2537
-5884 435 -496 929 -961 1454 -1369 1540 -1194 3366 -1926 5308 -2126 385 -40
529 -46 1070 -46 541 0 685 6 1070 46 1941 200 3769 932 5308 2126 912 708
1715 1578 2341 2536 926 1417 1495 3044 1650 4717 33 360 40 528 41 980 0 472
-7 637 -46 1029 -213 2194 -1116 4251 -2594 5911 -268 302 -716 738 -1026
1002 -1538 1303 -3385 2125 -5364 2387 -448 59 -774 81 -1285 85 -234 2 -452
2 -485 0z m1020 -764 c1056 -75 1992 -286 2937 -661 l183 -73 -95 -13 c-201
-29 -470 -104 -715 -200 -664 -262 -1260 -653 -1925 -1263 -475 -436 -1405
-1410 -2585 -2705 -90 -98 -123 -129 -139 -127 -53 8 -285 64 -421 102 -397
109 -771 253 -1130 432 -1019 510 -1385 851 -1560 1454 -57 195 -83 460 -66
665 44 532 249 912 627 1165 580 387 1382 456 2166 188 396 -136 634 -304 751
-532 130 -251 98 -440 -131 -772 -212 -306 -242 -358 -293 -507 -39 -112 -47
-198 -25 -283 42 -161 163 -280 323 -316 131 -29 259 2 420 102 105 65 265
225 338 338 225 346 275 792 135 1191 -114 326 -383 640 -762 888 -217 142
-380 226 -629 323 -231 90 -506 166 -739 205 l-75 12 60 19 c33 10 164 45 290
78 693 179 1268 264 2070 304 133 7 840 -3 990 -14z m3687 -1203 c145 -38 247
-95 343 -192 282 -283 320 -718 109 -1223 -171 -407 -499 -782 -1074 -1223
-396 -303 -699 -492 -1115 -695 -805 -391 -1660 -601 -2620 -644 -218 -10
-655 -4 -655 9 0 3 138 164 307 356 408 467 950 1098 1320 1542 506 604 813
935 1104 1188 588 513 1179 816 1764 905 33 5 141 7 240 6 155 -3 194 -7 277
-29z m1439 -679 c881 -654 1660 -1470 2273 -2382 100 -148 216 -331 216 -340
0 -3 -33 14 -72 36 -106 60 -286 140 -435 191 -366 128 -752 185 -1163 174
-228 -6 -384 -24 -600 -68 -498 -103 -944 -370 -1459 -873 -491 -481 -691
-852 -691 -1281 0 -145 18 -260 61 -381 99 -283 298 -515 575 -673 117 -66
183 -84 294 -79 81 3 105 8 163 35 216 102 319 346 238 564 -44 116 -75 149
-320 343 -131 103 -201 189 -231 283 -89 286 53 670 369 996 249 256 595 482
891 580 108 36 241 65 410 89 144 20 564 17 715 -5 858 -126 1499 -595 1714
-1254 51 -155 65 -251 65 -423 -1 -190 -19 -285 -94 -485 -125 -334 -278 -575
-524 -821 -193 -193 -368 -318 -637 -454 -541 -275 -1280 -447 -2009 -468
-605 -18 -1215 33 -2035 169 -1539 256 -3299 790 -5338 1619 l-228 93 163 166
c193 196 330 343 573 616 103 116 185 199 194 198 120 -13 607 -25 861 -20
691 14 1292 83 1950 223 926 198 1847 553 2495 962 886 559 1396 1175 1526
1844 57 293 41 590 -46 848 -19 55 -32 100 -30 100 1 0 76 -55 166 -122z
m-11431 -3 c-136 -364 -160 -815 -65 -1235 66 -294 183 -564 360 -830 317
-478 760 -794 1640 -1172 415 -178 989 -354 1433 -439 67 -13 122 -27 122 -30
0 -4 -170 -179 -377 -389 -253 -256 -382 -380 -392 -377 -9 3 -140 51 -291
107 -1061 394 -2001 646 -2830 759 -353 48 -466 56 -795 55 -297 0 -333 -2
-495 -27 -305 -47 -604 -123 -870 -220 -227 -83 -517 -242 -675 -373 -107 -87
-99 -84 -79 -33 9 24 57 139 106 254 652 1531 1721 2893 3077 3917 86 64 157
116 158 114 1 -1 -11 -38 -27 -81z m-875 -4085 c637 -45 1375 -227 2215 -547
273 -104 830 -335 830 -344 0 -11 -301 -251 -520 -414 -1107 -825 -2094 -1203
-2965 -1136 -658 50 -1025 176 -1270 433 -123 129 -192 263 -245 470 -64 254
-61 448 8 648 131 377 528 687 1062 829 273 72 496 88 885 61z m15915 -1280
c458 -1798 390 -3704 -195 -5455 -328 -984 -816 -1914 -1437 -2740 -656 -871
-1433 -1611 -2328 -2217 -85 -57 -173 -115 -195 -129 l-40 -24 16 25 c580 905
749 2190 449 3415 -21 88 -48 188 -58 223 l-20 63 21 13 c12 8 60 37 107 66
367 227 687 527 898 845 465 698 431 1571 -85 2257 -310 411 -812 724 -1483
926 -535 161 -1069 232 -1645 219 -457 -11 -833 -61 -1274 -168 -455 -111
-862 -262 -1311 -485 -623 -311 -1137 -680 -1626 -1168 -333 -334 -517 -561
-809 -1001 -422 -636 -691 -1143 -1358 -2560 -418 -889 -517 -1086 -705 -1399
-306 -509 -613 -822 -894 -911 -183 -58 -387 -8 -524 129 -117 118 -160 252
-150 476 20 487 208 938 624 1500 105 141 228 295 482 600 403 484 586 721
752 975 322 492 497 925 564 1390 26 177 24 486 -5 670 -40 267 -114 498 -223
704 -366 692 -1092 1161 -2013 1298 -174 26 -681 26 -844 0 -466 -75 -807
-180 -1186 -367 -384 -190 -733 -435 -1040 -732 -582 -562 -921 -1225 -962
-1883 l-7 -110 -49 150 c-415 1261 -562 2635 -427 3989 32 313 124 925 139
911 2 -3 15 -41 27 -84 30 -103 96 -255 157 -362 310 -545 947 -883 1877 -998
512 -63 909 -52 1355 39 1011 205 2093 801 3222 1773 101 86 187 157 192 157
4 0 131 -52 282 -116 2252 -954 3744 -1452 5223 -1745 1042 -206 2169 -297
2895 -234 971 85 1810 367 2446 823 183 131 416 353 555 527 209 263 402 630
497 943 l28 93 17 -58 c10 -32 40 -146 68 -253z m-14555 -3166 c535 -66 1029
-314 1314 -660 243 -295 345 -588 345 -994 0 -337 -71 -613 -244 -960 -172
-344 -361 -610 -925 -1300 -460 -562 -645 -813 -829 -1120 -221 -368 -355
-716 -416 -1081 -27 -161 -37 -434 -21 -597 7 -68 11 -126 9 -127 -2 -2 -64
46 -138 106 -758 619 -1418 1346 -1950 2145 -115 173 -267 416 -318 508 -7 13
16 -2 63 -40 22 -17 79 -57 128 -89 597 -387 1377 -416 2072 -75 377 184 688
454 924 800 211 310 322 624 353 998 26 315 -36 650 -169 917 -121 243 -271
410 -420 468 -283 111 -617 -87 -664 -394 -23 -144 19 -269 148 -450 78 -109
127 -197 158 -288 119 -340 63 -712 -156 -1031 -204 -298 -517 -500 -899 -581
-151 -32 -401 -32 -549 0 -326 70 -601 258 -791 543 -339 507 -355 1101 -44
1685 357 670 1032 1220 1819 1481 421 140 811 185 1200 136z m9225 -229 c595
-67 1108 -223 1470 -446 344 -211 554 -506 627 -877 22 -116 22 -319 -1 -435
-58 -299 -279 -650 -574 -914 -98 -87 -219 -183 -232 -183 -3 0 -30 44 -60 98
-364 666 -917 1159 -1525 1361 -519 172 -1130 180 -1531 21 -314 -125 -566
-343 -691 -601 -84 -171 -122 -326 -130 -524 -23 -604 367 -1145 1007 -1398
289 -115 559 -153 1010 -144 449 9 862 80 1291 221 l128 42 26 -106 c112 -472
143 -1062 79 -1549 -74 -567 -268 -1075 -558 -1461 -284 -379 -882 -810 -1486
-1073 -657 -286 -1382 -402 -1940 -312 -797 130 -1465 656 -1685 1328 -65 200
-80 298 -80 522 0 209 13 290 67 445 223 632 986 1100 1852 1137 685 29 1257
-323 1387 -853 31 -124 31 -315 0 -429 -58 -216 -155 -320 -346 -370 -39 -10
-139 -19 -283 -25 -123 -5 -251 -14 -285 -21 -291 -55 -441 -344 -313 -603
105 -214 345 -281 701 -197 331 79 652 309 858 614 276 410 309 941 86 1416
-122 261 -371 526 -646 688 -348 204 -775 307 -1198 289 -451 -19 -832 -115
-1220 -306 -653 -322 -1079 -841 -1207 -1471 -21 -103 -23 -141 -23 -384 1
-293 8 -360 65 -585 82 -324 249 -657 466 -927 179 -223 478 -475 734 -617
l65 -36 -135 0 c-74 0 -218 5 -320 10 -1143 62 -2218 311 -3265 755 -217 92
-567 256 -560 263 2 3 31 14 62 24 167 55 393 192 581 351 124 106 332 324
436 457 302 388 523 792 1081 1975 522 1105 801 1642 1118 2150 312 501 659
940 974 1231 927 858 2083 1367 3323 1464 162 12 639 4 800 -15z m-1070 -1916
c603 -55 1087 -366 1459 -938 87 -133 215 -381 204 -392 -5 -5 -62 -29 -128
-54 -691 -263 -1447 -308 -1916 -115 -399 165 -639 478 -639 834 0 205 76 373
227 498 178 148 427 201 793 167z"/>
</g>
</svg>
